<svg xmlns="http://www.w3.org/2000/svg" version="1.1" xmlns:xlink="http://www.w3.org/1999/xlink" xmlns:svgjs="http://svgjs.dev/svgjs" viewBox="0 0 800 800" opacity="0.19"><defs><symbol id="bbburst-shape-4" viewBox="0 0 149 143"><path d="M71.647 2.781c.898-2.764 4.808-2.764 5.706 0l15.445 47.534a3 3 0 0 0 2.853 2.073h49.98c2.906 0 4.115 3.719 1.764 5.427L106.96 87.193a2.999 2.999 0 0 0-1.09 3.354l15.445 47.534c.898 2.764-2.266 5.062-4.617 3.354l-40.435-29.378a3 3 0 0 0-3.526 0l-40.435 29.378c-2.351 1.708-5.515-.59-4.617-3.354L43.13 90.547a3 3 0 0 0-1.09-3.354L1.605 57.815c-2.35-1.708-1.142-5.427 1.764-5.427h49.98a3 3 0 0 0 2.853-2.073L71.647 2.781Z"></path></symbol><symbol id="bbburst-shape-14" viewBox="0 0 185 109"><path d="M168 16.5C168 58.1975 134.197 92 92.5 92 50.8025 92 17 58.1975 17 16.5" stroke-width="33" stroke-linecap="round"></path></symbol></defs><use xlink:href="#bbburst-shape-4" width="6.925959762177245" opacity="0.9233031901078633" transform="matrix(0.9986361317151773,-0.05220992657481055,0.05220992657481055,0.9986361317151773,699.4926170266252,391.72033982631297)" fill="#ffffff"></use><use xlink:href="#bbburst-shape-4" width="32.150192600930545" opacity="0.406290750867631" transform="matrix(0.9208036432585445,-0.39002647418065245,0.39002647418065245,0.9208036432585445,567.0220714114467,-152.46936819433265)" fill="#ffffff"></use><use xlink:href="#bbburst-shape-14" width="6.864030937698848" opacity="0.9747193002465661" transform="matrix(0.9683011384507557,-0.24978571871700425,0.24978571871700425,0.9683011384507557,674.3667624414381,401.82225460041013)" fill="none" stroke="#ffffff"></use><use xlink:href="#bbburst-shape-4" width="25.10327014518188" opacity="0.6646192607332584" transform="matrix(0.9806087191620873,0.1959758656143419,-0.1959758656143419,0.9806087191620873,679.0787230720433,126.90986832023293)" fill="#ffffff"></use><use xlink:href="#bbburst-shape-4" width="25.85394386705751" opacity="0.5358792142352546" transform="matrix(0.7551719510345568,-0.6555267533599685,0.6555267533599685,0.7551719510345568,219.28496886814293,159.90187714533386)" fill="#ffffff"></use><use xlink:href="#bbburst-shape-14" width="24.03763261676346" opacity="0.6574243694529729" transform="matrix(0.7244754561298051,-0.6893005973198564,0.6893005973198564,0.7244754561298051,190.03021626033103,411.90762231187944)" fill="none" stroke="#ffffff"></use><use xlink:href="#bbburst-shape-4" width="14.788526087928465" opacity="0.7381174462247251" transform="matrix(0.9993790528123759,-0.03523505072847761,0.03523505072847761,0.9993790528123759,535.5894057840014,302.70224690842537)" fill="#ffffff"></use><use xlink:href="#bbburst-shape-4" width="23.78923992746131" opacity="0.6295100386566248" transform="matrix(0.9999950580661222,-0.003143858033199696,0.003143858033199696,0.9999950580661222,513.9356045487147,149.49826726036747)" fill="#ffffff"></use><use xlink:href="#bbburst-shape-14" width="16.197683691728912" opacity="0.7709944511241542" transform="matrix(0.9531536612159803,0.30248652550249605,-0.30248652550249605,0.9531536612159803,693.7622480366823,351.0368794016245)" fill="none" stroke="#ffffff"></use><use xlink:href="#bbburst-shape-14" width="43.588671901783506" opacity="0.14113957887717898" transform="matrix(0.9578232589401133,0.28735797297680904,-0.28735797297680904,0.9578232589401133,472.7166568134113,-337.7462967918323)" fill="none" stroke="#ffffff"></use><use xlink:href="#bbburst-shape-4" width="45.52831356190126" opacity="0.25009979643604163" transform="matrix(0.9931540697564555,0.11681178761661701,-0.11681178761661701,0.9931540697564555,660.4937057170815,-331.7127120626385)" fill="#ffffff"></use><use xlink:href="#bbburst-shape-14" width="64.35183512503495" opacity="0.08086073605344257" transform="matrix(0.8756672979749721,-0.48291488200014243,0.48291488200014243,0.8756672979749721,-150.25144583796595,-94.51486864044509)" fill="none" stroke="#ffffff"></use><use xlink:href="#bbburst-shape-14" width="55.026416837679236" opacity="0.20938268671920146" transform="matrix(0.826831217107665,0.562450120825178,-0.562450120825178,0.826831217107665,354.09419075792596,1.0316359504972752)" fill="none" stroke="#ffffff"></use><use xlink:href="#bbburst-shape-4" width="15.477731286130119" opacity="0.7149155334358275" transform="matrix(0.9562239519181794,0.2926358723362181,-0.2926358723362181,0.9562239519181794,625.4173910352695,393.2388014803338)" fill="#ffffff"></use><use xlink:href="#bbburst-shape-4" width="11.691017993445161" opacity="0.7952455522531486" transform="matrix(0.9778540281852545,-0.20928807792579,0.20928807792579,0.9778540281852545,615.285435126224,228.8601133668011)" fill="#ffffff"></use><use xlink:href="#bbburst-shape-14" width="10.136423093350919" opacity="0.883938607845304" transform="matrix(0.8997975462638571,0.43630766179101405,-0.43630766179101405,0.8997975462638571,936.3235190531439,326.8007111556811)" fill="none" stroke="#ffffff"></use><use xlink:href="#bbburst-shape-4" width="23.938944280722854" opacity="0.686700140885063" transform="matrix(0.8435336942411599,0.5370762577882785,-0.5370762577882785,0.8435336942411599,794.0043763209778,224.32548087099548)" fill="#ffffff"></use><use xlink:href="#bbburst-shape-4" width="27.293422366851406" opacity="0.49609186970438834" transform="matrix(0.9545347278736739,-0.2980997371403258,0.2980997371403258,0.9545347278736739,570.7675986933359,-72.21131732660945)" fill="#ffffff"></use><use xlink:href="#bbburst-shape-14" width="44.98178458789928" opacity="0.31868608591730174" transform="matrix(0.9689290797241411,-0.24733871202245913,0.24733871202245913,0.9689290797241411,273.7726972713636,-129.4408853385208)" fill="none" stroke="#ffffff"></use><use xlink:href="#bbburst-shape-14" width="9.737088521667172" opacity="0.8594837398916213" transform="matrix(0.9355458706666471,0.35320521496516044,-0.35320521496516044,0.9355458706666471,889.2414885845302,291.82326944723235)" fill="none" stroke="#ffffff"></use><use xlink:href="#bbburst-shape-4" width="8.296676603453232" opacity="0.8637271941041336" transform="matrix(0.9838913571838248,0.1787674390345493,-0.1787674390345493,0.9838913571838248,853.1917109076147,270.1817187652041)" fill="#ffffff"></use><use xlink:href="#bbburst-shape-14" width="26.20441694167555" opacity="0.5556439972407595" transform="matrix(0.9311613128352356,-0.3646074731529244,0.3646074731529244,0.9311613128352356,299.12308837179035,149.66472557375107)" fill="none" stroke="#ffffff"></use><use xlink:href="#bbburst-shape-14" width="34.234280679920914" opacity="0.32936415041793954" transform="matrix(0.9989869434556976,-0.045000964490138934,0.045000964490138934,0.9989869434556976,709.8035566269104,-267.1468947097268)" fill="none" stroke="#ffffff"></use><use xlink:href="#bbburst-shape-4" width="36.30386513102393" opacity="0.4668826273484651" transform="matrix(0.7575542323327215,-0.6527722306247264,0.6527722306247264,0.7575542323327215,135.31779423989434,145.20968736711717)" fill="#ffffff"></use><use xlink:href="#bbburst-shape-4" width="11.640719819961049" opacity="0.8758127842633474" transform="matrix(0.9420175495923038,0.3355636098567774,-0.3355636098567774,0.9420175495923038,808.6984882687002,389.42628781027395)" fill="#ffffff"></use><use xlink:href="#bbburst-shape-14" width="25.656685222311772" opacity="0.6248389153623117" transform="matrix(0.8635439372421037,-0.5042736047548054,0.5042736047548054,0.8635439372421037,246.31779257564642,304.4781289871868)" fill="none" stroke="#ffffff"></use><use xlink:href="#bbburst-shape-4" width="29.30498499117687" opacity="0.4333630928604314" transform="matrix(0.9404260771228337,0.3399982256826616,-0.3399982256826616,0.9404260771228337,384.9673091829497,238.74218768514157)" fill="#ffffff"></use><use xlink:href="#bbburst-shape-14" width="18.56203398109217" opacity="0.8082866441451023" transform="matrix(0.8048243385982023,-0.5935130866290702,0.5935130866290702,0.8048243385982023,375.2657958787678,417.2719841295517)" fill="none" stroke="#ffffff"></use><use xlink:href="#bbburst-shape-4" width="14.316295965117934" opacity="0.8281692046999015" transform="matrix(0.9855640989514114,-0.16930270776952344,0.16930270776952344,0.9855640989514114,601.8150061003208,287.4353663160039)" fill="#ffffff"></use><use xlink:href="#bbburst-shape-14" width="42.747043297218795" opacity="0.15844287943465618" transform="matrix(0.9801128044842948,0.19844115119080108,-0.19844115119080108,0.9801128044842948,277.71609617119776,-205.33199047073813)" fill="none" stroke="#ffffff"></use><use xlink:href="#bbburst-shape-4" width="45.069846414805575" opacity="0.44091336930530467" transform="matrix(0.8428100941910558,0.538211060021683,-0.538211060021683,0.8428100941910558,662.040258308725,2.598275642348824)" fill="#ffffff"></use><use xlink:href="#bbburst-shape-14" width="8.785061322522129" opacity="0.907351795685093" transform="matrix(0.8407583191735214,-0.541410610110769,0.541410610110769,0.8407583191735214,490.6264143938637,440.7701589574606)" fill="none" stroke="#ffffff"></use><use xlink:href="#bbburst-shape-4" width="21.396596470683633" opacity="0.47351252561082613" transform="matrix(0.7455598040184401,-0.6664387283404117,0.6664387283404117,0.7455598040184401,494.3230776495427,-16.645520587763656)" fill="#ffffff"></use><use xlink:href="#bbburst-shape-4" width="48.54831572097221" opacity="0.26663362056008644" transform="matrix(0.7686694019939058,0.6396462697759844,-0.6396462697759844,0.7686694019939058,496.66834471702697,-18.624621163590177)" fill="#ffffff"></use><use xlink:href="#bbburst-shape-4" width="6.736149667076889" opacity="0.9492101055672817" transform="matrix(0.9322691836340737,0.3617653510858353,-0.3617653510858353,0.9322691836340737,912.2629314448736,384.3938804972856)" fill="#ffffff"></use><use xlink:href="#bbburst-shape-14" width="13.176377429535503" opacity="0.8244013964739989" transform="matrix(0.9323985882382637,0.36143169845946366,-0.36143169845946366,0.9323985882382637,789.8346810303557,331.10110527746946)" fill="none" stroke="#ffffff"></use><use xlink:href="#bbburst-shape-14" width="18.987296076242338" opacity="0.7472784900254846" transform="matrix(0.9999845040372167,0.005567017643380955,-0.005567017643380955,0.9999845040372167,598.1140750237071,238.7599750038629)" fill="none" stroke="#ffffff"></use><use xlink:href="#bbburst-shape-14" width="6.109361803726063" opacity="0.9534944046929464" transform="matrix(0.7555899552098624,0.6550448989084322,-0.6550448989084322,0.7555899552098624,1021.1329930546879,469.7883129748202)" fill="none" stroke="#ffffff"></use><use xlink:href="#bbburst-shape-4" width="17.481280863911543" opacity="0.8469660829790737" transform="matrix(0.9719197618891317,-0.23531250805975787,0.23531250805975787,0.9719197618891317,554.4365071416249,358.66422889444164)" fill="#ffffff"></use><use xlink:href="#bbburst-shape-4" width="15.89713849189691" opacity="0.6812422557698157" transform="matrix(0.9031380111913068,-0.4293503612918137,0.4293503612918137,0.9031380111913068,597.2064712141627,124.3086340563865)" fill="#ffffff"></use><use xlink:href="#bbburst-shape-14" width="48.848274971022796" opacity="0.15432205509411934" transform="matrix(0.8527519049598559,0.5223161768386433,-0.5223161768386433,0.8527519049598559,241.3137001071865,49.29185914611344)" fill="none" stroke="#ffffff"></use><use xlink:href="#bbburst-shape-4" width="45.58265295129493" opacity="0.22076641526422536" transform="matrix(0.9982146263444893,-0.05972905282968805,0.05972905282968805,0.9982146263444893,314.5428400413412,-241.81208856498105)" fill="#ffffff"></use><use xlink:href="#bbburst-shape-4" width="17.940372883805175" opacity="0.5933211570993914" transform="matrix(0.8276525379867324,0.5612408363297529,-0.5612408363297529,0.8276525379867324,984.3408700078543,58.557747976075404)" fill="#ffffff"></use><use xlink:href="#bbburst-shape-4" width="25.524476065286112" opacity="0.6182611798609148" transform="matrix(0.9526190553791667,-0.3041659667492472,0.3041659667492472,0.9526190553791667,586.5062532887705,49.52516608654639)" fill="#ffffff"></use><use xlink:href="#bbburst-shape-4" width="33.46244949877302" opacity="0.43391796019393536" transform="matrix(0.9935288741006516,-0.11357982359684993,0.11357982359684993,0.9935288741006516,180.61322675382047,305.3916637143954)" fill="#ffffff"></use><use xlink:href="#bbburst-shape-14" width="15.118819400614885" opacity="0.7493696730938308" transform="matrix(0.8976994186109247,-0.4406083905528897,0.4406083905528897,0.8976994186109247,510.03926364780796,217.5992011799711)" fill="none" stroke="#ffffff"></use><use xlink:href="#bbburst-shape-14" width="4.788175994305392" opacity="0.9782074828308739" transform="matrix(0.7434785416705423,-0.6687597910127699,0.6687597910127699,0.7434785416705423,524.4752707458877,483.3359716002388)" fill="none" stroke="#ffffff"></use><use xlink:href="#bbburst-shape-14" width="38.049736378486045" opacity="0.3488315947819649" transform="matrix(0.7101667401321843,-0.7040335227885294,0.7040335227885294,0.7101667401321843,323.19788599144374,-95.93619814300502)" fill="none" stroke="#ffffff"></use><use xlink:href="#bbburst-shape-14" width="28.302711049029185" opacity="0.48382159252845724" transform="matrix(0.8924533017345024,-0.45113978346315814,0.45113978346315814,0.8924533017345024,422.7855961343421,-32.7768775528865)" fill="none" stroke="#ffffff"></use><use xlink:href="#bbburst-shape-14" width="24.092453346153153" opacity="0.6760272395824839" transform="matrix(0.7471192169896558,-0.6646900598058945,0.6646900598058945,0.7471192169896558,390.1989302602553,214.65397717770918)" fill="none" stroke="#ffffff"></use><use xlink:href="#bbburst-shape-4" width="21.475022545354584" opacity="0.6087775977304238" transform="matrix(0.8867522869696335,0.4622449367533676,-0.4622449367533676,0.8867522869696335,648.5140774439084,225.36031929174658)" fill="#ffffff"></use><use xlink:href="#bbburst-shape-4" width="8.775857187174246" opacity="0.8934758653244729" transform="matrix(0.7805114131161738,0.6251415311714569,-0.6251415311714569,0.7805114131161738,940.5419937599726,475.3938579615775)" fill="#ffffff"></use><use xlink:href="#bbburst-shape-14" width="18.96956490161881" opacity="0.5849764250535652" transform="matrix(0.9786161727652591,-0.20569488667022431,0.20569488667022431,0.9786161727652591,295.4413380346597,369.63628447757554)" fill="none" stroke="#ffffff"></use><use xlink:href="#bbburst-shape-4" width="17.313908165771835" opacity="0.7727479459654182" transform="matrix(0.9775413987198667,0.2107434786388576,-0.2107434786388576,0.9775413987198667,745.2597964886578,221.17838342890911)" fill="#ffffff"></use><use xlink:href="#bbburst-shape-14" width="21.542092187316427" opacity="0.6113820637072608" transform="matrix(0.9430143491215203,-0.3327520658852707,0.3327520658852707,0.9430143491215203,412.6048138727441,124.05461053152482)" fill="none" stroke="#ffffff"></use><use xlink:href="#bbburst-shape-14" width="60.26848140506714" opacity="-0.020964479870969166" transform="matrix(0.8082070538317934,0.5888984276906609,-0.5888984276906609,0.8082070538317934,284.60059307167785,-258.2388995622714)" fill="none" stroke="#ffffff"></use><use xlink:href="#bbburst-shape-4" width="48.813420591574285" opacity="0.3248568810660605" transform="matrix(0.8695713812997415,-0.4938072628308129,0.4938072628308129,0.8695713812997415,-47.96583238514873,219.57155777803194)" fill="#ffffff"></use><use xlink:href="#bbburst-shape-14" width="8.28201185802872" opacity="0.911636234608114" transform="matrix(0.7439673744901155,-0.6682159424125439,0.6682159424125439,0.7439673744901155,452.5823225702563,461.9424528688829)" fill="none" stroke="#ffffff"></use><use xlink:href="#bbburst-shape-14" width="5.319496965643227" opacity="0.9222813801858707" transform="matrix(0.9716189052482702,-0.23655169194946152,0.23655169194946152,0.9716189052482702,691.3518925605769,335.11727541346556)" fill="none" stroke="#ffffff"></use><use xlink:href="#bbburst-shape-14" width="5.016470856985143" opacity="0.9897583636083095" transform="matrix(0.9916519398061713,0.12894351584572852,-0.12894351584572852,0.9916519398061713,840.9059359624673,396.86421783827564)" fill="none" stroke="#ffffff"></use><use xlink:href="#bbburst-shape-4" width="16.580289243190926" opacity="0.7807467021804155" transform="matrix(0.8959411656234249,0.444172745383301,-0.444172745383301,0.8959411656234249,780.9971532785157,327.2249766637866)" fill="#ffffff"></use><use xlink:href="#bbburst-shape-14" width="4.445292128629687" opacity="0.9058471678392898" transform="matrix(0.8786664948975546,0.47743605932569205,-0.47743605932569205,0.8786664948975546,982.7058368650487,353.53654832601933)" fill="none" stroke="#ffffff"></use><use xlink:href="#bbburst-shape-4" width="40.16373696706862" opacity="0.2094731234170597" transform="matrix(0.9853778273596493,-0.1703835008091373,0.1703835008091373,0.9853778273596493,-31.53509071675574,140.9925504619804)" fill="#ffffff"></use><use xlink:href="#bbburst-shape-14" width="17.29326737721032" opacity="0.731845756918666" transform="matrix(0.9960307043056986,-0.08901031446014532,0.08901031446014532,0.9960307043056986,525.1915302810381,265.5118520258977)" fill="none" stroke="#ffffff"></use><use xlink:href="#bbburst-shape-4" width="8.999395966544647" opacity="0.9126378718270536" transform="matrix(0.8441846837848687,-0.5360524411501558,0.5360524411501558,0.8441846837848687,529.5839220280852,394.6936475546805)" fill="#ffffff"></use><use xlink:href="#bbburst-shape-14" width="21.314688217013657" opacity="0.6297330991984749" transform="matrix(0.999995663590853,0.0029449617127578786,-0.0029449617127578786,0.999995663590853,666.1525302427522,51.24398208079043)" fill="none" stroke="#ffffff"></use><use xlink:href="#bbburst-shape-4" width="34.209082348370835" opacity="0.38082336160807306" transform="matrix(0.9929278399311683,-0.11871943686534336,0.11871943686534336,0.9929278399311683,117.84588258412428,361.9574990062147)" fill="#ffffff"></use><use xlink:href="#bbburst-shape-14" width="35.54473434574557" opacity="0.22621790726906388" transform="matrix(0.8618702364366794,-0.5071288746902333,0.5071288746902333,0.8618702364366794,-187.62123369089014,382.79228877483814)" fill="none" stroke="#ffffff"></use><use xlink:href="#bbburst-shape-4" width="38.332459094163774" opacity="0.2959124699974237" transform="matrix(0.9256005769800938,0.37850174622333965,-0.37850174622333965,0.9256005769800938,231.02813663991907,377.08725169928573)" fill="#ffffff"></use><use xlink:href="#bbburst-shape-4" width="10.448818921796656" opacity="0.8346407743385118" transform="matrix(0.9931062367132308,0.1172177571926897,-0.1172177571926897,0.9931062367132308,677.9789684423359,378.9190836663664)" fill="#ffffff"></use><use xlink:href="#bbburst-shape-4" width="34.24327029031294" opacity="0.3591230937117912" transform="matrix(0.76634005113611,0.6424351531669981,-0.6424351531669981,0.76634005113611,418.60234963938797,341.7409761812104)" fill="#ffffff"></use><use xlink:href="#bbburst-shape-14" width="21.308580085534615" opacity="0.6615783100347954" transform="matrix(0.9258977528749952,0.37777420666455547,-0.37777420666455547,0.9258977528749952,657.8098366078034,240.71028321790322)" fill="none" stroke="#ffffff"></use><use xlink:href="#bbburst-shape-14" width="44.94032707505128" opacity="0.2973299524784403" transform="matrix(0.7263651090597937,0.6873090486386412,-0.6873090486386412,0.7263651090597937,446.8922227021877,148.2112462062605)" fill="none" stroke="#ffffff"></use><use xlink:href="#bbburst-shape-4" width="17.84193012237996" opacity="0.6777519211882048" transform="matrix(0.9623715359256643,0.27173705459520586,-0.27173705459520586,0.9623715359256643,827.7835958088606,98.61506804296641)" fill="#ffffff"></use><use xlink:href="#bbburst-shape-4" width="11.55623310421429" opacity="0.8658537827298419" transform="matrix(0.9884100572117095,-0.15180763749806925,0.15180763749806925,0.9884100572117095,620.2993844294546,333.6516206018641)" fill="#ffffff"></use><use xlink:href="#bbburst-shape-14" width="13.561928826172643" opacity="0.7462057975978109" transform="matrix(0.9618830912068024,0.27346100060236433,-0.27346100060236433,0.9618830912068024,651.0840659034845,381.4423732797877)" fill="none" stroke="#ffffff"></use><use xlink:href="#bbburst-shape-14" width="47.669717369894954" opacity="0.37209301901422664" transform="matrix(0.800530319363431,-0.5992922557316115,0.5992922557316115,0.800530319363431,39.35496781365367,116.79418467451751)" fill="none" stroke="#ffffff"></use><use xlink:href="#bbburst-shape-4" width="31.436764878729996" opacity="0.5489937466081493" transform="matrix(0.8116981657520672,0.5840771248000812,-0.5840771248000812,0.8116981657520672,772.7274352240399,89.54781489168528)" fill="#ffffff"></use><use xlink:href="#bbburst-shape-4" width="11.676100126428949" opacity="0.8855656710059303" transform="matrix(0.7255594629284695,0.6881594769782299,-0.6881594769782299,0.7255594629284695,1015.0085153382782,405.9773155802507)" fill="#ffffff"></use><use xlink:href="#bbburst-shape-4" width="27.375034351745352" opacity="0.497295405159096" transform="matrix(0.8196853510962415,0.5728140406783263,-0.5728140406783263,0.8196853510962415,557.1515644250095,263.2330646666528)" fill="#ffffff"></use><use xlink:href="#bbburst-shape-14" width="10.171340409764392" opacity="0.8867439314879659" transform="matrix(0.9420943830708207,-0.3353478393942768,0.3353478393942768,0.9420943830708207,558.8867972550906,376.0477944442554)" fill="none" stroke="#ffffff"></use><use xlink:href="#bbburst-shape-14" width="5.139034300119268" opacity="0.9661014128845089" transform="matrix(0.9988963087229815,-0.046969824564309946,0.046969824564309946,0.9988963087229815,763.0692947631692,370.46114101323934)" fill="none" stroke="#ffffff"></use><use xlink:href="#bbburst-shape-4" width="25.969407382325937" opacity="0.5611198194729579" transform="matrix(0.9083941860783826,0.41811481999445177,-0.41811481999445177,0.9083941860783826,782.3150216119443,27.94407010880593)" fill="#ffffff"></use><use xlink:href="#bbburst-shape-14" width="11.504201763601229" opacity="0.731549925265477" transform="matrix(0.853410670305525,0.5212391272810153,-0.5212391272810153,0.853410670305525,955.923018612871,191.46451358306223)" fill="none" stroke="#ffffff"></use><use xlink:href="#bbburst-shape-14" width="16.528831389844804" opacity="0.634248187831433" transform="matrix(0.9863566378060534,-0.16462254722831218,0.16462254722831218,0.9863566378060534,365.53952989666413,344.86839859301176)" fill="none" stroke="#ffffff"></use><use xlink:href="#bbburst-shape-4" width="44.37046240275459" opacity="0.3909255791177403" transform="matrix(0.7650670236719638,0.6439506574961492,-0.6439506574961492,0.7650670236719638,763.1607553229678,-62.50877878432607)" fill="#ffffff"></use><use xlink:href="#bbburst-shape-4" width="13.993958570227674" opacity="0.7210858534580655" transform="matrix(0.8388486170555773,-0.5443647652667698,0.5443647652667698,0.8388486170555773,559.0178280169181,189.90762419101583)" fill="#ffffff"></use><use xlink:href="#bbburst-shape-14" width="15.092595785717036" opacity="0.7133612311926747" transform="matrix(0.8186882118318113,0.5742382883504297,-0.5742382883504297,0.8186882118318113,746.8918930315209,393.0636640214211)" fill="none" stroke="#ffffff"></use><use xlink:href="#bbburst-shape-14" width="51.91192576632933" opacity="0.06382471322866046" transform="matrix(0.7969528717636687,-0.6040414887966236,0.6040414887966236,0.7969528717636687,-38.736834989421965,-240.67708700060115)" fill="none" stroke="#ffffff"></use><use xlink:href="#bbburst-shape-14" width="6.889388106928621" opacity="0.9623132060016452" transform="matrix(0.9912811478284397,0.13176375055352313,-0.13176375055352313,0.9912811478284397,812.4052714926244,395.30726665712274)" fill="none" stroke="#ffffff"></use><use xlink:href="#bbburst-shape-14" width="16.01286115686301" opacity="0.8537732661464577" transform="matrix(0.9113754711480223,-0.4115759353870441,0.4115759353870441,0.9113754711480223,548.2142057334871,316.27622548514483)" fill="none" stroke="#ffffff"></use><use xlink:href="#bbburst-shape-14" width="7.108760855527395" opacity="0.9109771018090124" transform="matrix(0.7677983292166749,0.6406915994861199,-0.6406915994861199,0.7677983292166749,1018.2467786795469,408.88340590129866)" fill="none" stroke="#ffffff"></use><use xlink:href="#bbburst-shape-14" width="14.033974649287028" opacity="0.8181740882750267" transform="matrix(0.989484774197633,0.1446370686617339,-0.1446370686617339,0.989484774197633,745.8885388854806,254.7801835439402)" fill="none" stroke="#ffffff"></use><use xlink:href="#bbburst-shape-14" width="22.983704730290192" opacity="0.6973654395241478" transform="matrix(0.809631773411077,-0.5869381496233096,0.5869381496233096,0.809631773411077,319.40954668760617,294.1276552298581)" fill="none" stroke="#ffffff"></use><use xlink:href="#bbburst-shape-4" width="43.73353020871441" opacity="0.2608242832890246" transform="matrix(0.8514392704634443,-0.5244532092691185,0.5244532092691185,0.8514392704634443,-148.65692673482252,304.85378115866644)" fill="#ffffff"></use><use xlink:href="#bbburst-shape-14" width="22.54859929182514" opacity="0.7139623542060498" transform="matrix(0.9818683508647145,-0.18956408301734284,0.18956408301734284,0.9818683508647145,619.4244979244964,139.15969932833866)" fill="none" stroke="#ffffff"></use><use xlink:href="#bbburst-shape-4" width="29.483213785974502" opacity="0.43063575065703485" transform="matrix(0.8127143393172006,0.5826623401835802,-0.5826623401835802,0.8127143393172006,868.4878975441007,-82.19215220961422)" fill="#ffffff"></use><use xlink:href="#bbburst-shape-4" width="20.670545990706476" opacity="0.6405256082007725" transform="matrix(0.9671170926075848,0.2543315339989363,-0.2543315339989363,0.9671170926075848,865.2426515962984,52.04566749112013)" fill="#ffffff"></use><use xlink:href="#bbburst-shape-14" width="5.496988736520556" opacity="0.9376675251228004" transform="matrix(0.9455592423720773,-0.32545002560261554,0.32545002560261554,0.9455592423720773,657.6564987450989,361.083922720824)" fill="none" stroke="#ffffff"></use><use xlink:href="#bbburst-shape-14" width="21.540177313979637" opacity="0.4981955389320524" transform="matrix(0.826975222719374,0.5622383667166817,-0.5622383667166817,0.826975222719374,523.5702611805534,366.49420073119404)" fill="none" stroke="#ffffff"></use><use xlink:href="#bbburst-shape-4" width="43.708312271636245" opacity="0.40899063297522087" transform="matrix(0.9179301648291389,0.3967419973947174,-0.3967419973947174,0.9179301648291389,414.3996038734467,151.27517049706512)" fill="#ffffff"></use><use xlink:href="#bbburst-shape-14" width="17.84718775440558" opacity="0.6005154968084323" transform="matrix(0.8689732832801774,-0.49485900309610265,0.49485900309610265,0.8689732832801774,207.9925740581712,355.1438371570867)" fill="none" stroke="#ffffff"></use><use xlink:href="#bbburst-shape-14" width="14.74931190187683" opacity="0.769108770912638" transform="matrix(0.7692538610321404,-0.6389432660942163,0.6389432660942163,0.7692538610321404,520.4362917828064,266.8629744833441)" fill="none" stroke="#ffffff"></use><use xlink:href="#bbburst-shape-14" width="27.032265906307302" opacity="0.5394853540101772" transform="matrix(0.8183601080292409,0.5747057800182361,-0.5747057800182361,0.8183601080292409,573.9565932007072,345.80519745988005)" fill="none" stroke="#ffffff"></use><use xlink:href="#bbburst-shape-4" width="14.82058270000569" opacity="0.6749950113538354" transform="matrix(0.9624874931349772,-0.27132605027668694,0.27132605027668694,0.9624874931349772,359.9771556849762,396.62241988109594)" fill="#ffffff"></use><use xlink:href="#bbburst-shape-14" width="6.627382103943401" opacity="0.9330388438850448" transform="matrix(0.7866522541514444,0.6173963322197917,-0.6173963322197917,0.7866522541514444,1014.6720159128489,423.2733370936647)" fill="none" stroke="#ffffff"></use><use xlink:href="#bbburst-shape-14" width="29.255653874580787" opacity="0.5584859675284224" transform="matrix(0.8779123365969267,0.47882139598280754,-0.47882139598280754,0.8779123365969267,868.9551015379061,14.200128521846068)" fill="none" stroke="#ffffff"></use><use xlink:href="#bbburst-shape-14" width="7.893720951769935" opacity="0.9307566565869687" transform="matrix(0.8966808998941528,0.4426774940800722,-0.4426774940800722,0.8966808998941528,922.4587808524989,392.8283139474682)" fill="none" stroke="#ffffff"></use><use xlink:href="#bbburst-shape-4" width="10.576044361310442" opacity="0.8611626263593679" transform="matrix(0.8007780730397951,-0.5989611654679062,0.5989611654679062,0.8007780730397951,417.9733867572328,469.7153476106486)" fill="#ffffff"></use><use xlink:href="#bbburst-shape-4" width="10.539707043126764" opacity="0.8387698793602598" transform="matrix(0.7345762281084373,-0.6785261712697462,0.6785261712697462,0.7345762281084373,502.1688496583994,350.1077478446129)" fill="#ffffff"></use><use xlink:href="#bbburst-shape-4" width="26.66644405927179" opacity="0.5421392449291473" transform="matrix(0.7293882316094327,0.6840999982383165,-0.6840999982383165,0.7293882316094327,1029.5305537980225,42.57201688735228)" fill="#ffffff"></use><use xlink:href="#bbburst-shape-14" width="16.702597847006" opacity="0.7407095501611152" transform="matrix(0.9007942630243131,0.43424612341676083,-0.43424612341676083,0.9007942630243131,795.4452493565583,240.91972570358394)" fill="none" stroke="#ffffff"></use><use xlink:href="#bbburst-shape-14" width="8.742261321076956" opacity="0.8101741504191238" transform="matrix(0.961067409836864,-0.27631401294444186,0.27631401294444186,0.961067409836864,673.0435618682612,227.36092826074258)" fill="none" stroke="#ffffff"></use><use xlink:href="#bbburst-shape-4" width="15.363211178591229" opacity="0.7903421962052343" transform="matrix(0.9030578859278021,0.42951886415337887,-0.42951886415337887,0.9030578859278021,812.3066705638107,291.67602170000805)" fill="#ffffff"></use><use xlink:href="#bbburst-shape-14" width="29.288389444647358" opacity="0.5692917037758769" transform="matrix(0.9901574950211344,0.1399576187760861,-0.1399576187760861,0.9901574950211344,442.0563411118257,240.76701621098846)" fill="none" stroke="#ffffff"></use><use xlink:href="#bbburst-shape-14" width="16.76185232324502" opacity="0.8290980510410997" transform="matrix(0.7214100301909361,0.6925081720383613,-0.6925081720383613,0.7214100301909361,1008.2749948205184,346.65038125042673)" fill="none" stroke="#ffffff"></use><use xlink:href="#bbburst-shape-4" width="10.293966312819576" opacity="0.8832444970614927" transform="matrix(0.8583000233200619,0.5131481949386367,-0.5131481949386367,0.8583000233200619,922.4765687246042,367.49325622009064)" fill="#ffffff"></use><use xlink:href="#bbburst-shape-14" width="11.914773929106781" opacity="0.7764078942857695" transform="matrix(0.9110455289774039,-0.4123057653371856,0.4123057653371856,0.9110455289774039,406.80487995295573,419.8752425629064)" fill="none" stroke="#ffffff"></use><use xlink:href="#bbburst-shape-4" width="5.948367259556903" opacity="0.903763916553949" transform="matrix(0.9813792617029673,0.19208004763467462,-0.19208004763467462,0.9813792617029673,851.734279130656,313.2365570068163)" fill="#ffffff"></use><use xlink:href="#bbburst-shape-4" width="33.114043735669256" opacity="0.4864179099067769" transform="matrix(0.85262327696758,-0.522526121426542,0.522526121426542,0.85262327696758,327.406806440713,18.711858493616774)" fill="#ffffff"></use><use xlink:href="#bbburst-shape-4" width="11.030173206748064" opacity="0.8574525311441048" transform="matrix(0.9463935997764362,-0.32301571835159776,0.32301571835159776,0.9463935997764362,561.6448861293997,325.67430101829797)" fill="#ffffff"></use><use xlink:href="#bbburst-shape-14" width="21.25754160352405" opacity="0.5392771181737488" transform="matrix(0.8271944237915959,0.5619158168694752,-0.5619158168694752,0.8271944237915959,556.6351232461498,427.28573817128864)" fill="none" stroke="#ffffff"></use><use xlink:href="#bbburst-shape-4" width="31.278929388744647" opacity="0.5498504168012198" transform="matrix(0.8245282242083601,-0.5658208263079473,0.5658208263079473,0.8245282242083601,171.47528410064712,253.0817890302697)" fill="#ffffff"></use><use xlink:href="#bbburst-shape-4" width="7.038534552307181" opacity="0.9009925676013093" transform="matrix(0.9967760844213508,0.08023364335264928,-0.08023364335264928,0.9967760844213508,752.518498275488,337.6388418774921)" fill="#ffffff"></use><use xlink:href="#bbburst-shape-14" width="32.54927371336491" opacity="0.23976823965092653" transform="matrix(0.7621716032827887,-0.6473750436565681,0.6473750436565681,0.7621716032827887,470.235366591589,-252.2816507253865)" fill="none" stroke="#ffffff"></use><use xlink:href="#bbburst-shape-4" width="10.378774616128032" opacity="0.8065725246548154" transform="matrix(0.9977607988794681,0.06688339270256592,-0.06688339270256592,0.9977607988794681,629.5660044745935,377.1750938058406)" fill="#ffffff"></use><use xlink:href="#bbburst-shape-4" width="15.982782264889998" opacity="0.7598982751385095" transform="matrix(0.9993252393123855,0.036729634809556766,-0.036729634809556766,0.9993252393123855,743.1570479172713,168.45155787592796)" fill="#ffffff"></use><use xlink:href="#bbburst-shape-14" width="46.51603358149469" opacity="0.28717436699442933" transform="matrix(0.9681781361873231,0.25026205587112327,-0.25026205587112327,0.9681781361873231,575.7499033928653,-238.80517144841428)" fill="none" stroke="#ffffff"></use><use xlink:href="#bbburst-shape-4" width="9.308614290503309" opacity="0.8861055750388691" transform="matrix(0.9882341096153129,-0.15294882998189233,0.15294882998189233,0.9882341096153129,723.7206072805832,292.0173239692737)" fill="#ffffff"></use><use xlink:href="#bbburst-shape-4" width="17.30856480572696" opacity="0.6295935098931735" transform="matrix(0.8712663123600254,0.4908105672727133,-0.4908105672727133,0.8712663123600254,618.8179842700026,429.0436152304901)" fill="#ffffff"></use><use xlink:href="#bbburst-shape-14" width="6.98538298754427" opacity="0.9447980040390487" transform="matrix(0.8539703122272773,0.5203217330022325,-0.5203217330022325,0.8539703122272773,950.8069894852665,446.85263905929617)" fill="none" stroke="#ffffff"></use><use xlink:href="#bbburst-shape-4" width="10.484861342834266" opacity="0.508045674185432" transform="matrix(0.7370587007985396,-0.6758287294700994,0.6758287294700994,0.7370587007985396,34.001248262570016,496.7980956492607)" fill="#ffffff"></use><use xlink:href="#bbburst-shape-14" width="12.61042926305134" opacity="0.801806275224386" transform="matrix(0.8170670794509409,0.5765426156647138,-0.5765426156647138,0.8170670794509409,984.9223624680322,275.54718318512533)" fill="none" stroke="#ffffff"></use><use xlink:href="#bbburst-shape-4" width="14.484949096294693" opacity="0.678675525147418" transform="matrix(0.9596493226535888,0.2811995333042148,-0.2811995333042148,0.9596493226535888,590.1262624533225,352.6956449187331)" fill="#ffffff"></use><use xlink:href="#bbburst-shape-14" width="23.5108146296587" opacity="0.6138391363075455" transform="matrix(0.9828826570491817,-0.18423268567748957,0.18423268567748957,0.9828826570491817,529.1287216730504,70.4264654866032)" fill="none" stroke="#ffffff"></use><use xlink:href="#bbburst-shape-4" width="19.673766560419516" opacity="0.7175475942972933" transform="matrix(0.9827800223227215,0.18477940286555475,-0.18477940286555475,0.9827800223227215,714.4907839671416,165.6003863100093)" fill="#ffffff"></use><use xlink:href="#bbburst-shape-14" width="15.113835388082393" opacity="0.7896064256167593" transform="matrix(0.9245074114218069,0.3811640673334119,-0.3811640673334119,0.9245074114218069,874.2607720239415,229.35950117985948)" fill="none" stroke="#ffffff"></use><use xlink:href="#bbburst-shape-4" width="7.643478236221879" opacity="0.9322116601369111" transform="matrix(0.9645609191979903,-0.263860253080922,0.263860253080922,0.9645609191979903,629.0353024347003,387.1923269750776)" fill="#ffffff"></use><use xlink:href="#bbburst-shape-14" width="34.94098932925526" opacity="0.47657610572682596" transform="matrix(0.9945870018363194,-0.1039071497936549,0.1039071497936549,0.9945870018363194,306.0497527113363,112.93754691167817)" fill="none" stroke="#ffffff"></use><use xlink:href="#bbburst-shape-14" width="41.08416039552415" opacity="0.3721382536007065" transform="matrix(0.9520227789070197,0.30602716945094244,-0.30602716945094244,0.9520227789070197,467.74721427149035,-39.7092045662792)" fill="none" stroke="#ffffff"></use><use xlink:href="#bbburst-shape-14" width="35.07156496478575" opacity="0.20025865571441637" transform="matrix(0.9049459696061081,-0.4255264881222565,0.4255264881222565,0.9049459696061081,336.1006004553741,-304.4009753208702)" fill="none" stroke="#ffffff"></use><use xlink:href="#bbburst-shape-4" width="18.13203449409898" opacity="0.6885958124709954" transform="matrix(0.9726976385184719,0.23207607377881118,-0.23207607377881118,0.9726976385184719,602.7086636616114,275.25453829831076)" fill="#ffffff"></use><use xlink:href="#bbburst-shape-4" width="6.485487410944828" opacity="0.9541538695105696" transform="matrix(0.8474328654766512,0.5309025696962034,-0.5309025696962034,0.8474328654766512,1000.7951613785904,414.3194997973868)" fill="#ffffff"></use><use xlink:href="#bbburst-shape-4" width="24.737265257431478" opacity="0.46190422528973873" transform="matrix(0.8850536138064661,0.4654890983558206,-0.4654890983558206,0.8850536138064661,438.1189497805066,407.8381815885425)" fill="#ffffff"></use></svg>