<?xml version="1.0" encoding="utf-8"?><svg xmlns="http://www.w3.org/2000/svg" xmlns:xlink="http://www.w3.org/1999/xlink" width="1630" height="1366" preserveAspectRatio="xMidYMid" viewBox="0 0 1630 1366" style="z-index:1;margin-right:-1.6px;display:block;animation-play-state:paused" ><g transform="translate(815,683) scale(1,1) translate(-815,-683)" style="transform:matrix(1, 0, 0, 1, 0, 0);animation-play-state:paused" ><g transform="matrix(1,0,0,1,941.16455078125,774.065673828125)" style="transform:matrix(1, 0, 0, 1, 941.165, 774.066);animation-play-state:paused" ><path d="M84.717,33.597c0.791-2.503,1.186-5.138,1.186-7.773C85.903,11.594,74.308,0,60.079,0 c-9.881,0-18.445,5.534-22.793,13.702c-1.581-0.527-3.426-0.791-5.138-0.791c-9.486,0-17.128,7.642-17.128,17.128 c0,1.186,0.132,2.372,0.395,3.426C6.719,34.783,0,42.424,0,51.515C0,61.66,8.169,69.829,18.314,69.829h63.373 C91.831,69.829,100,61.66,100,51.515C99.868,42.556,93.281,35.046,84.717,33.597z" fill="rgba(237, 177, 149, 0.43122596002394153)" transform="scale(0.366)" style="transform:matrix(0.366, 0, 0, 0.366, 0, 0);animation-play-state:paused" ></path></g>
<g transform="matrix(1,0,0,1,18.652801513671875,223.22763061523438)" style="transform:matrix(1, 0, 0, 1, 18.6528, 223.228);animation-play-state:paused" ><path d="M84.717,33.597c0.791-2.503,1.186-5.138,1.186-7.773C85.903,11.594,74.308,0,60.079,0 c-9.881,0-18.445,5.534-22.793,13.702c-1.581-0.527-3.426-0.791-5.138-0.791c-9.486,0-17.128,7.642-17.128,17.128 c0,1.186,0.132,2.372,0.395,3.426C6.719,34.783,0,42.424,0,51.515C0,61.66,8.169,69.829,18.314,69.829h63.373 C91.831,69.829,100,61.66,100,51.515C99.868,42.556,93.281,35.046,84.717,33.597z" fill="rgba(237, 177, 149, 0.43122596002394153)" transform="scale(0.366)" style="transform:matrix(0.366, 0, 0, 0.366, 0, 0);animation-play-state:paused" ></path></g>
<g transform="matrix(1,0,0,1,1561.565185546875,1072.2491455078125)" style="transform:matrix(1, 0, 0, 1, 1561.57, 1072.25);animation-play-state:paused" ><path d="M84.717,33.597c0.791-2.503,1.186-5.138,1.186-7.773C85.903,11.594,74.308,0,60.079,0 c-9.881,0-18.445,5.534-22.793,13.702c-1.581-0.527-3.426-0.791-5.138-0.791c-9.486,0-17.128,7.642-17.128,17.128 c0,1.186,0.132,2.372,0.395,3.426C6.719,34.783,0,42.424,0,51.515C0,61.66,8.169,69.829,18.314,69.829h63.373 C91.831,69.829,100,61.66,100,51.515C99.868,42.556,93.281,35.046,84.717,33.597z" fill="rgba(237, 177, 149, 0.43122596002394153)" transform="scale(0.366)" style="transform:matrix(0.366, 0, 0, 0.366, 0, 0);animation-play-state:paused" ></path></g>
<g transform="matrix(1,0,0,1,1101.4600830078125,704.1546020507812)" style="transform:matrix(1, 0, 0, 1, 1101.46, 704.155);animation-play-state:paused" ><path d="M84.717,33.597c0.791-2.503,1.186-5.138,1.186-7.773C85.903,11.594,74.308,0,60.079,0 c-9.881,0-18.445,5.534-22.793,13.702c-1.581-0.527-3.426-0.791-5.138-0.791c-9.486,0-17.128,7.642-17.128,17.128 c0,1.186,0.132,2.372,0.395,3.426C6.719,34.783,0,42.424,0,51.515C0,61.66,8.169,69.829,18.314,69.829h63.373 C91.831,69.829,100,61.66,100,51.515C99.868,42.556,93.281,35.046,84.717,33.597z" fill="rgba(237, 177, 149, 0.43122596002394153)" transform="scale(0.366)" style="transform:matrix(0.366, 0, 0, 0.366, 0, 0);animation-play-state:paused" ></path></g>
<g transform="matrix(1,0,0,1,1402.6318359375,185.899658203125)" style="transform:matrix(1, 0, 0, 1, 1402.63, 185.9);animation-play-state:paused" ><path d="M84.717,33.597c0.791-2.503,1.186-5.138,1.186-7.773C85.903,11.594,74.308,0,60.079,0 c-9.881,0-18.445,5.534-22.793,13.702c-1.581-0.527-3.426-0.791-5.138-0.791c-9.486,0-17.128,7.642-17.128,17.128 c0,1.186,0.132,2.372,0.395,3.426C6.719,34.783,0,42.424,0,51.515C0,61.66,8.169,69.829,18.314,69.829h63.373 C91.831,69.829,100,61.66,100,51.515C99.868,42.556,93.281,35.046,84.717,33.597z" fill="rgba(237, 177, 149, 0.43122596002394153)" transform="scale(0.366)" style="transform:matrix(0.366, 0, 0, 0.366, 0, 0);animation-play-state:paused" ></path></g>
<g transform="matrix(1,0,0,1,358.80377197265625,1340.3221435546875)" style="transform:matrix(1, 0, 0, 1, 358.804, 1340.32);animation-play-state:paused" ><path d="M84.717,33.597c0.791-2.503,1.186-5.138,1.186-7.773C85.903,11.594,74.308,0,60.079,0 c-9.881,0-18.445,5.534-22.793,13.702c-1.581-0.527-3.426-0.791-5.138-0.791c-9.486,0-17.128,7.642-17.128,17.128 c0,1.186,0.132,2.372,0.395,3.426C6.719,34.783,0,42.424,0,51.515C0,61.66,8.169,69.829,18.314,69.829h63.373 C91.831,69.829,100,61.66,100,51.515C99.868,42.556,93.281,35.046,84.717,33.597z" fill="rgba(237, 177, 149, 0.43122596002394153)" transform="scale(0.366)" style="transform:matrix(0.366, 0, 0, 0.366, 0, 0);animation-play-state:paused" ></path></g>
<g transform="matrix(1,0,0,1,1045.8712158203125,679.9786376953125)" style="transform:matrix(1, 0, 0, 1, 1045.87, 679.979);animation-play-state:paused" ><path d="M84.717,33.597c0.791-2.503,1.186-5.138,1.186-7.773C85.903,11.594,74.308,0,60.079,0 c-9.881,0-18.445,5.534-22.793,13.702c-1.581-0.527-3.426-0.791-5.138-0.791c-9.486,0-17.128,7.642-17.128,17.128 c0,1.186,0.132,2.372,0.395,3.426C6.719,34.783,0,42.424,0,51.515C0,61.66,8.169,69.829,18.314,69.829h63.373 C91.831,69.829,100,61.66,100,51.515C99.868,42.556,93.281,35.046,84.717,33.597z" fill="rgba(237, 177, 149, 0.43122596002394153)" transform="scale(0.366)" style="transform:matrix(0.366, 0, 0, 0.366, 0, 0);animation-play-state:paused" ></path></g>
<g transform="matrix(1,0,0,1,1602.1004638671875,295.8031005859375)" style="transform:matrix(1, 0, 0, 1, 1602.1, 295.803);animation-play-state:paused" ><path d="M84.717,33.597c0.791-2.503,1.186-5.138,1.186-7.773C85.903,11.594,74.308,0,60.079,0 c-9.881,0-18.445,5.534-22.793,13.702c-1.581-0.527-3.426-0.791-5.138-0.791c-9.486,0-17.128,7.642-17.128,17.128 c0,1.186,0.132,2.372,0.395,3.426C6.719,34.783,0,42.424,0,51.515C0,61.66,8.169,69.829,18.314,69.829h63.373 C91.831,69.829,100,61.66,100,51.515C99.868,42.556,93.281,35.046,84.717,33.597z" fill="rgba(237, 177, 149, 0.43122596002394153)" transform="scale(0.366)" style="transform:matrix(0.366, 0, 0, 0.366, 0, 0);animation-play-state:paused" ></path></g>
<g transform="matrix(1,0,0,1,-55.27784729003906,470.45965576171875)" style="transform:matrix(1, 0, 0, 1, -55.2778, 470.46);animation-play-state:paused" ><path d="M84.717,33.597c0.791-2.503,1.186-5.138,1.186-7.773C85.903,11.594,74.308,0,60.079,0 c-9.881,0-18.445,5.534-22.793,13.702c-1.581-0.527-3.426-0.791-5.138-0.791c-9.486,0-17.128,7.642-17.128,17.128 c0,1.186,0.132,2.372,0.395,3.426C6.719,34.783,0,42.424,0,51.515C0,61.66,8.169,69.829,18.314,69.829h63.373 C91.831,69.829,100,61.66,100,51.515C99.868,42.556,93.281,35.046,84.717,33.597z" fill="rgba(237, 177, 149, 0.43122596002394153)" transform="scale(0.366)" style="transform:matrix(0.366, 0, 0, 0.366, 0, 0);animation-play-state:paused" ></path></g>
<g transform="matrix(1,0,0,1,-94.43336486816406,823.0979614257812)" style="transform:matrix(1, 0, 0, 1, -94.4334, 823.098);animation-play-state:paused" ><path d="M84.717,33.597c0.791-2.503,1.186-5.138,1.186-7.773C85.903,11.594,74.308,0,60.079,0 c-9.881,0-18.445,5.534-22.793,13.702c-1.581-0.527-3.426-0.791-5.138-0.791c-9.486,0-17.128,7.642-17.128,17.128 c0,1.186,0.132,2.372,0.395,3.426C6.719,34.783,0,42.424,0,51.515C0,61.66,8.169,69.829,18.314,69.829h63.373 C91.831,69.829,100,61.66,100,51.515C99.868,42.556,93.281,35.046,84.717,33.597z" fill="rgba(237, 177, 149, 0.43122596002394153)" transform="scale(0.366)" style="transform:matrix(0.366, 0, 0, 0.366, 0, 0);animation-play-state:paused" ></path></g>
<g transform="matrix(1,0,0,1,-16.980369567871094,408.0614929199219)" style="transform:matrix(1, 0, 0, 1, -16.9804, 408.062);animation-play-state:paused" ><path d="M84.717,33.597c0.791-2.503,1.186-5.138,1.186-7.773C85.903,11.594,74.308,0,60.079,0 c-9.881,0-18.445,5.534-22.793,13.702c-1.581-0.527-3.426-0.791-5.138-0.791c-9.486,0-17.128,7.642-17.128,17.128 c0,1.186,0.132,2.372,0.395,3.426C6.719,34.783,0,42.424,0,51.515C0,61.66,8.169,69.829,18.314,69.829h63.373 C91.831,69.829,100,61.66,100,51.515C99.868,42.556,93.281,35.046,84.717,33.597z" fill="rgba(237, 177, 149, 0.43122596002394153)" transform="scale(0.366)" style="transform:matrix(0.366, 0, 0, 0.366, 0, 0);animation-play-state:paused" ></path></g>
<g transform="matrix(1,0,0,1,439.16217041015625,664.7257690429688)" style="transform:matrix(1, 0, 0, 1, 439.162, 664.726);animation-play-state:paused" ><path d="M84.717,33.597c0.791-2.503,1.186-5.138,1.186-7.773C85.903,11.594,74.308,0,60.079,0 c-9.881,0-18.445,5.534-22.793,13.702c-1.581-0.527-3.426-0.791-5.138-0.791c-9.486,0-17.128,7.642-17.128,17.128 c0,1.186,0.132,2.372,0.395,3.426C6.719,34.783,0,42.424,0,51.515C0,61.66,8.169,69.829,18.314,69.829h63.373 C91.831,69.829,100,61.66,100,51.515C99.868,42.556,93.281,35.046,84.717,33.597z" fill="rgba(228, 107, 67, 0.49832273421748985)" transform="scale(0.444)" style="transform:matrix(0.444, 0, 0, 0.444, 0, 0);animation-play-state:paused" ></path></g>
<g transform="matrix(1,0,0,1,1538.4305419921875,855.2890014648438)" style="transform:matrix(1, 0, 0, 1, 1538.43, 855.289);animation-play-state:paused" ><path d="M84.717,33.597c0.791-2.503,1.186-5.138,1.186-7.773C85.903,11.594,74.308,0,60.079,0 c-9.881,0-18.445,5.534-22.793,13.702c-1.581-0.527-3.426-0.791-5.138-0.791c-9.486,0-17.128,7.642-17.128,17.128 c0,1.186,0.132,2.372,0.395,3.426C6.719,34.783,0,42.424,0,51.515C0,61.66,8.169,69.829,18.314,69.829h63.373 C91.831,69.829,100,61.66,100,51.515C99.868,42.556,93.281,35.046,84.717,33.597z" fill="rgba(228, 107, 67, 0.49832273421748985)" transform="scale(0.444)" style="transform:matrix(0.444, 0, 0, 0.444, 0, 0);animation-play-state:paused" ></path></g>
<g transform="matrix(1,0,0,1,45.12599182128906,471.9060363769531)" style="transform:matrix(1, 0, 0, 1, 45.126, 471.906);animation-play-state:paused" ><path d="M84.717,33.597c0.791-2.503,1.186-5.138,1.186-7.773C85.903,11.594,74.308,0,60.079,0 c-9.881,0-18.445,5.534-22.793,13.702c-1.581-0.527-3.426-0.791-5.138-0.791c-9.486,0-17.128,7.642-17.128,17.128 c0,1.186,0.132,2.372,0.395,3.426C6.719,34.783,0,42.424,0,51.515C0,61.66,8.169,69.829,18.314,69.829h63.373 C91.831,69.829,100,61.66,100,51.515C99.868,42.556,93.281,35.046,84.717,33.597z" fill="rgba(228, 107, 67, 0.49832273421748985)" transform="scale(0.444)" style="transform:matrix(0.444, 0, 0, 0.444, 0, 0);animation-play-state:paused" ></path></g>
<g transform="matrix(1,0,0,1,300.0522766113281,690.5428466796875)" style="transform:matrix(1, 0, 0, 1, 300.052, 690.543);animation-play-state:paused" ><path d="M84.717,33.597c0.791-2.503,1.186-5.138,1.186-7.773C85.903,11.594,74.308,0,60.079,0 c-9.881,0-18.445,5.534-22.793,13.702c-1.581-0.527-3.426-0.791-5.138-0.791c-9.486,0-17.128,7.642-17.128,17.128 c0,1.186,0.132,2.372,0.395,3.426C6.719,34.783,0,42.424,0,51.515C0,61.66,8.169,69.829,18.314,69.829h63.373 C91.831,69.829,100,61.66,100,51.515C99.868,42.556,93.281,35.046,84.717,33.597z" fill="rgba(228, 107, 67, 0.49832273421748985)" transform="scale(0.444)" style="transform:matrix(0.444, 0, 0, 0.444, 0, 0);animation-play-state:paused" ></path></g>
<g transform="matrix(1,0,0,1,1187.9798583984375,206.4659423828125)" style="transform:matrix(1, 0, 0, 1, 1187.98, 206.466);animation-play-state:paused" ><path d="M84.717,33.597c0.791-2.503,1.186-5.138,1.186-7.773C85.903,11.594,74.308,0,60.079,0 c-9.881,0-18.445,5.534-22.793,13.702c-1.581-0.527-3.426-0.791-5.138-0.791c-9.486,0-17.128,7.642-17.128,17.128 c0,1.186,0.132,2.372,0.395,3.426C6.719,34.783,0,42.424,0,51.515C0,61.66,8.169,69.829,18.314,69.829h63.373 C91.831,69.829,100,61.66,100,51.515C99.868,42.556,93.281,35.046,84.717,33.597z" fill="rgba(228, 107, 67, 0.49832273421748985)" transform="scale(0.444)" style="transform:matrix(0.444, 0, 0, 0.444, 0, 0);animation-play-state:paused" ></path></g>
<g transform="matrix(1,0,0,1,-58.43302917480469,1257.7784423828125)" style="transform:matrix(1, 0, 0, 1, -58.433, 1257.78);animation-play-state:paused" ><path d="M84.717,33.597c0.791-2.503,1.186-5.138,1.186-7.773C85.903,11.594,74.308,0,60.079,0 c-9.881,0-18.445,5.534-22.793,13.702c-1.581-0.527-3.426-0.791-5.138-0.791c-9.486,0-17.128,7.642-17.128,17.128 c0,1.186,0.132,2.372,0.395,3.426C6.719,34.783,0,42.424,0,51.515C0,61.66,8.169,69.829,18.314,69.829h63.373 C91.831,69.829,100,61.66,100,51.515C99.868,42.556,93.281,35.046,84.717,33.597z" fill="rgba(228, 107, 67, 0.49832273421748985)" transform="scale(0.444)" style="transform:matrix(0.444, 0, 0, 0.444, 0, 0);animation-play-state:paused" ></path></g>
<g transform="matrix(1,0,0,1,1406.1444091796875,1136.533203125)" style="transform:matrix(1, 0, 0, 1, 1406.14, 1136.53);animation-play-state:paused" ><path d="M84.717,33.597c0.791-2.503,1.186-5.138,1.186-7.773C85.903,11.594,74.308,0,60.079,0 c-9.881,0-18.445,5.534-22.793,13.702c-1.581-0.527-3.426-0.791-5.138-0.791c-9.486,0-17.128,7.642-17.128,17.128 c0,1.186,0.132,2.372,0.395,3.426C6.719,34.783,0,42.424,0,51.515C0,61.66,8.169,69.829,18.314,69.829h63.373 C91.831,69.829,100,61.66,100,51.515C99.868,42.556,93.281,35.046,84.717,33.597z" fill="rgba(228, 107, 67, 0.49832273421748985)" transform="scale(0.444)" style="transform:matrix(0.444, 0, 0, 0.444, 0, 0);animation-play-state:paused" ></path></g>
<g transform="matrix(1,0,0,1,141.44847106933594,927.63525390625)" style="transform:matrix(1, 0, 0, 1, 141.448, 927.635);animation-play-state:paused" ><path d="M84.717,33.597c0.791-2.503,1.186-5.138,1.186-7.773C85.903,11.594,74.308,0,60.079,0 c-9.881,0-18.445,5.534-22.793,13.702c-1.581-0.527-3.426-0.791-5.138-0.791c-9.486,0-17.128,7.642-17.128,17.128 c0,1.186,0.132,2.372,0.395,3.426C6.719,34.783,0,42.424,0,51.515C0,61.66,8.169,69.829,18.314,69.829h63.373 C91.831,69.829,100,61.66,100,51.515C99.868,42.556,93.281,35.046,84.717,33.597z" fill="rgba(228, 107, 67, 0.49832273421748985)" transform="scale(0.444)" style="transform:matrix(0.444, 0, 0, 0.444, 0, 0);animation-play-state:paused" ></path></g>
<g transform="matrix(1,0,0,1,1163.77001953125,866.930419921875)" style="transform:matrix(1, 0, 0, 1, 1163.77, 866.93);animation-play-state:paused" ><path d="M84.717,33.597c0.791-2.503,1.186-5.138,1.186-7.773C85.903,11.594,74.308,0,60.079,0 c-9.881,0-18.445,5.534-22.793,13.702c-1.581-0.527-3.426-0.791-5.138-0.791c-9.486,0-17.128,7.642-17.128,17.128 c0,1.186,0.132,2.372,0.395,3.426C6.719,34.783,0,42.424,0,51.515C0,61.66,8.169,69.829,18.314,69.829h63.373 C91.831,69.829,100,61.66,100,51.515C99.868,42.556,93.281,35.046,84.717,33.597z" fill="rgba(228, 107, 67, 0.49832273421748985)" transform="scale(0.444)" style="transform:matrix(0.444, 0, 0, 0.444, 0, 0);animation-play-state:paused" ></path></g>
<g transform="matrix(1,0,0,1,1201.2249755859375,759.1473388671875)" style="transform:matrix(1, 0, 0, 1, 1201.23, 759.147);animation-play-state:paused" ><path d="M84.717,33.597c0.791-2.503,1.186-5.138,1.186-7.773C85.903,11.594,74.308,0,60.079,0 c-9.881,0-18.445,5.534-22.793,13.702c-1.581-0.527-3.426-0.791-5.138-0.791c-9.486,0-17.128,7.642-17.128,17.128 c0,1.186,0.132,2.372,0.395,3.426C6.719,34.783,0,42.424,0,51.515C0,61.66,8.169,69.829,18.314,69.829h63.373 C91.831,69.829,100,61.66,100,51.515C99.868,42.556,93.281,35.046,84.717,33.597z" fill="rgba(228, 107, 67, 0.49832273421748985)" transform="scale(0.444)" style="transform:matrix(0.444, 0, 0, 0.444, 0, 0);animation-play-state:paused" ></path></g>
<g transform="matrix(1,0,0,1,600.17919921875,500.6311950683594)" style="transform:matrix(1, 0, 0, 1, 600.179, 500.631);animation-play-state:paused" ><path d="M84.717,33.597c0.791-2.503,1.186-5.138,1.186-7.773C85.903,11.594,74.308,0,60.079,0 c-9.881,0-18.445,5.534-22.793,13.702c-1.581-0.527-3.426-0.791-5.138-0.791c-9.486,0-17.128,7.642-17.128,17.128 c0,1.186,0.132,2.372,0.395,3.426C6.719,34.783,0,42.424,0,51.515C0,61.66,8.169,69.829,18.314,69.829h63.373 C91.831,69.829,100,61.66,100,51.515C99.868,42.556,93.281,35.046,84.717,33.597z" fill="rgba(228, 107, 67, 0.49832273421748985)" transform="scale(0.444)" style="transform:matrix(0.444, 0, 0, 0.444, 0, 0);animation-play-state:paused" ></path></g>
<g transform="matrix(1,0,0,1,1018.133056640625,1058.248291015625)" style="transform:matrix(1, 0, 0, 1, 1018.13, 1058.25);animation-play-state:paused" ><path d="M84.717,33.597c0.791-2.503,1.186-5.138,1.186-7.773C85.903,11.594,74.308,0,60.079,0 c-9.881,0-18.445,5.534-22.793,13.702c-1.581-0.527-3.426-0.791-5.138-0.791c-9.486,0-17.128,7.642-17.128,17.128 c0,1.186,0.132,2.372,0.395,3.426C6.719,34.783,0,42.424,0,51.515C0,61.66,8.169,69.829,18.314,69.829h63.373 C91.831,69.829,100,61.66,100,51.515C99.868,42.556,93.281,35.046,84.717,33.597z" fill="rgba(249, 26, 16, 0.5570324116368448)" transform="scale(0.522)" style="transform:matrix(0.522, 0, 0, 0.522, 0, 0);animation-play-state:paused" ></path></g>
<g transform="matrix(1,0,0,1,363.0265808105469,1241.786376953125)" style="transform:matrix(1, 0, 0, 1, 363.027, 1241.79);animation-play-state:paused" ><path d="M84.717,33.597c0.791-2.503,1.186-5.138,1.186-7.773C85.903,11.594,74.308,0,60.079,0 c-9.881,0-18.445,5.534-22.793,13.702c-1.581-0.527-3.426-0.791-5.138-0.791c-9.486,0-17.128,7.642-17.128,17.128 c0,1.186,0.132,2.372,0.395,3.426C6.719,34.783,0,42.424,0,51.515C0,61.66,8.169,69.829,18.314,69.829h63.373 C91.831,69.829,100,61.66,100,51.515C99.868,42.556,93.281,35.046,84.717,33.597z" fill="rgba(249, 26, 16, 0.5570324116368448)" transform="scale(0.522)" style="transform:matrix(0.522, 0, 0, 0.522, 0, 0);animation-play-state:paused" ></path></g>
<g transform="matrix(1,0,0,1,648.7649536132812,645.3645629882812)" style="transform:matrix(1, 0, 0, 1, 648.765, 645.365);animation-play-state:paused" ><path d="M84.717,33.597c0.791-2.503,1.186-5.138,1.186-7.773C85.903,11.594,74.308,0,60.079,0 c-9.881,0-18.445,5.534-22.793,13.702c-1.581-0.527-3.426-0.791-5.138-0.791c-9.486,0-17.128,7.642-17.128,17.128 c0,1.186,0.132,2.372,0.395,3.426C6.719,34.783,0,42.424,0,51.515C0,61.66,8.169,69.829,18.314,69.829h63.373 C91.831,69.829,100,61.66,100,51.515C99.868,42.556,93.281,35.046,84.717,33.597z" fill="rgba(249, 26, 16, 0.5570324116368448)" transform="scale(0.522)" style="transform:matrix(0.522, 0, 0, 0.522, 0, 0);animation-play-state:paused" ></path></g>
<g transform="matrix(1,0,0,1,537.2216186523438,456.68084716796875)" style="transform:matrix(1, 0, 0, 1, 537.222, 456.681);animation-play-state:paused" ><path d="M84.717,33.597c0.791-2.503,1.186-5.138,1.186-7.773C85.903,11.594,74.308,0,60.079,0 c-9.881,0-18.445,5.534-22.793,13.702c-1.581-0.527-3.426-0.791-5.138-0.791c-9.486,0-17.128,7.642-17.128,17.128 c0,1.186,0.132,2.372,0.395,3.426C6.719,34.783,0,42.424,0,51.515C0,61.66,8.169,69.829,18.314,69.829h63.373 C91.831,69.829,100,61.66,100,51.515C99.868,42.556,93.281,35.046,84.717,33.597z" fill="rgba(249, 26, 16, 0.5570324116368448)" transform="scale(0.522)" style="transform:matrix(0.522, 0, 0, 0.522, 0, 0);animation-play-state:paused" ></path></g>
<g transform="matrix(1,0,0,1,1436.8431396484375,1180.3133544921875)" style="transform:matrix(1, 0, 0, 1, 1436.84, 1180.31);animation-play-state:paused" ><path d="M84.717,33.597c0.791-2.503,1.186-5.138,1.186-7.773C85.903,11.594,74.308,0,60.079,0 c-9.881,0-18.445,5.534-22.793,13.702c-1.581-0.527-3.426-0.791-5.138-0.791c-9.486,0-17.128,7.642-17.128,17.128 c0,1.186,0.132,2.372,0.395,3.426C6.719,34.783,0,42.424,0,51.515C0,61.66,8.169,69.829,18.314,69.829h63.373 C91.831,69.829,100,61.66,100,51.515C99.868,42.556,93.281,35.046,84.717,33.597z" fill="rgba(249, 26, 16, 0.5570324116368448)" transform="scale(0.522)" style="transform:matrix(0.522, 0, 0, 0.522, 0, 0);animation-play-state:paused" ></path></g>
<g transform="matrix(1,0,0,1,199.98019409179688,683.9750366210938)" style="transform:matrix(1, 0, 0, 1, 199.98, 683.975);animation-play-state:paused" ><path d="M84.717,33.597c0.791-2.503,1.186-5.138,1.186-7.773C85.903,11.594,74.308,0,60.079,0 c-9.881,0-18.445,5.534-22.793,13.702c-1.581-0.527-3.426-0.791-5.138-0.791c-9.486,0-17.128,7.642-17.128,17.128 c0,1.186,0.132,2.372,0.395,3.426C6.719,34.783,0,42.424,0,51.515C0,61.66,8.169,69.829,18.314,69.829h63.373 C91.831,69.829,100,61.66,100,51.515C99.868,42.556,93.281,35.046,84.717,33.597z" fill="rgba(249, 26, 16, 0.5570324116368448)" transform="scale(0.522)" style="transform:matrix(0.522, 0, 0, 0.522, 0, 0);animation-play-state:paused" ></path></g>
<g transform="matrix(1,0,0,1,207.40280151367188,195.1262969970703)" style="transform:matrix(1, 0, 0, 1, 207.403, 195.126);animation-play-state:paused" ><path d="M84.717,33.597c0.791-2.503,1.186-5.138,1.186-7.773C85.903,11.594,74.308,0,60.079,0 c-9.881,0-18.445,5.534-22.793,13.702c-1.581-0.527-3.426-0.791-5.138-0.791c-9.486,0-17.128,7.642-17.128,17.128 c0,1.186,0.132,2.372,0.395,3.426C6.719,34.783,0,42.424,0,51.515C0,61.66,8.169,69.829,18.314,69.829h63.373 C91.831,69.829,100,61.66,100,51.515C99.868,42.556,93.281,35.046,84.717,33.597z" fill="rgba(249, 26, 16, 0.5570324116368448)" transform="scale(0.522)" style="transform:matrix(0.522, 0, 0, 0.522, 0, 0);animation-play-state:paused" ></path></g>
<g transform="matrix(1,0,0,1,24.142181396484375,1273.527099609375)" style="transform:matrix(1, 0, 0, 1, 24.1422, 1273.53);animation-play-state:paused" ><path d="M84.717,33.597c0.791-2.503,1.186-5.138,1.186-7.773C85.903,11.594,74.308,0,60.079,0 c-9.881,0-18.445,5.534-22.793,13.702c-1.581-0.527-3.426-0.791-5.138-0.791c-9.486,0-17.128,7.642-17.128,17.128 c0,1.186,0.132,2.372,0.395,3.426C6.719,34.783,0,42.424,0,51.515C0,61.66,8.169,69.829,18.314,69.829h63.373 C91.831,69.829,100,61.66,100,51.515C99.868,42.556,93.281,35.046,84.717,33.597z" fill="rgba(249, 26, 16, 0.5570324116368448)" transform="scale(0.522)" style="transform:matrix(0.522, 0, 0, 0.522, 0, 0);animation-play-state:paused" ></path></g>
<g transform="matrix(1,0,0,1,132.39892578125,299.9432678222656)" style="transform:matrix(1, 0, 0, 1, 132.399, 299.943);animation-play-state:paused" ><path d="M84.717,33.597c0.791-2.503,1.186-5.138,1.186-7.773C85.903,11.594,74.308,0,60.079,0 c-9.881,0-18.445,5.534-22.793,13.702c-1.581-0.527-3.426-0.791-5.138-0.791c-9.486,0-17.128,7.642-17.128,17.128 c0,1.186,0.132,2.372,0.395,3.426C6.719,34.783,0,42.424,0,51.515C0,61.66,8.169,69.829,18.314,69.829h63.373 C91.831,69.829,100,61.66,100,51.515C99.868,42.556,93.281,35.046,84.717,33.597z" fill="rgba(249, 26, 16, 0.5570324116368448)" transform="scale(0.522)" style="transform:matrix(0.522, 0, 0, 0.522, 0, 0);animation-play-state:paused" ></path></g>
<g transform="matrix(1,0,0,1,46.47344970703125,986.077880859375)" style="transform:matrix(1, 0, 0, 1, 46.4735, 986.078);animation-play-state:paused" ><path d="M84.717,33.597c0.791-2.503,1.186-5.138,1.186-7.773C85.903,11.594,74.308,0,60.079,0 c-9.881,0-18.445,5.534-22.793,13.702c-1.581-0.527-3.426-0.791-5.138-0.791c-9.486,0-17.128,7.642-17.128,17.128 c0,1.186,0.132,2.372,0.395,3.426C6.719,34.783,0,42.424,0,51.515C0,61.66,8.169,69.829,18.314,69.829h63.373 C91.831,69.829,100,61.66,100,51.515C99.868,42.556,93.281,35.046,84.717,33.597z" fill="rgba(249, 26, 16, 0.5570324116368448)" transform="scale(0.522)" style="transform:matrix(0.522, 0, 0, 0.522, 0, 0);animation-play-state:paused" ></path></g>
<g transform="matrix(1,0,0,1,965.944580078125,1339.329345703125)" style="transform:matrix(1, 0, 0, 1, 965.945, 1339.33);animation-play-state:paused" ><path d="M84.717,33.597c0.791-2.503,1.186-5.138,1.186-7.773C85.903,11.594,74.308,0,60.079,0 c-9.881,0-18.445,5.534-22.793,13.702c-1.581-0.527-3.426-0.791-5.138-0.791c-9.486,0-17.128,7.642-17.128,17.128 c0,1.186,0.132,2.372,0.395,3.426C6.719,34.783,0,42.424,0,51.515C0,61.66,8.169,69.829,18.314,69.829h63.373 C91.831,69.829,100,61.66,100,51.515C99.868,42.556,93.281,35.046,84.717,33.597z" fill="rgba(249, 26, 16, 0.5570324116368448)" transform="scale(0.522)" style="transform:matrix(0.522, 0, 0, 0.522, 0, 0);animation-play-state:paused" ></path></g>
<g transform="matrix(1,0,0,1,283.6933898925781,439.60101318359375)" style="transform:matrix(1, 0, 0, 1, 283.693, 439.601);animation-play-state:paused" ><path d="M84.717,33.597c0.791-2.503,1.186-5.138,1.186-7.773C85.903,11.594,74.308,0,60.079,0 c-9.881,0-18.445,5.534-22.793,13.702c-1.581-0.527-3.426-0.791-5.138-0.791c-9.486,0-17.128,7.642-17.128,17.128 c0,1.186,0.132,2.372,0.395,3.426C6.719,34.783,0,42.424,0,51.515C0,61.66,8.169,69.829,18.314,69.829h63.373 C91.831,69.829,100,61.66,100,51.515C99.868,42.556,93.281,35.046,84.717,33.597z" fill="rgba(60, 15, 15, 0.5654195084110383)" transform="scale(0.6)" style="transform:matrix(0.6, 0, 0, 0.6, 0, 0);animation-play-state:paused" ></path></g>
<g transform="matrix(1,0,0,1,1397.6181640625,639.3204345703125)" style="transform:matrix(1, 0, 0, 1, 1397.62, 639.32);animation-play-state:paused" ><path d="M84.717,33.597c0.791-2.503,1.186-5.138,1.186-7.773C85.903,11.594,74.308,0,60.079,0 c-9.881,0-18.445,5.534-22.793,13.702c-1.581-0.527-3.426-0.791-5.138-0.791c-9.486,0-17.128,7.642-17.128,17.128 c0,1.186,0.132,2.372,0.395,3.426C6.719,34.783,0,42.424,0,51.515C0,61.66,8.169,69.829,18.314,69.829h63.373 C91.831,69.829,100,61.66,100,51.515C99.868,42.556,93.281,35.046,84.717,33.597z" fill="rgba(60, 15, 15, 0.5654195084110383)" transform="scale(0.6)" style="transform:matrix(0.6, 0, 0, 0.6, 0, 0);animation-play-state:paused" ></path></g>
<g transform="matrix(1,0,0,1,1014.9696044921875,56.2945671081543)" style="transform:matrix(1, 0, 0, 1, 1014.97, 56.2946);animation-play-state:paused" ><path d="M84.717,33.597c0.791-2.503,1.186-5.138,1.186-7.773C85.903,11.594,74.308,0,60.079,0 c-9.881,0-18.445,5.534-22.793,13.702c-1.581-0.527-3.426-0.791-5.138-0.791c-9.486,0-17.128,7.642-17.128,17.128 c0,1.186,0.132,2.372,0.395,3.426C6.719,34.783,0,42.424,0,51.515C0,61.66,8.169,69.829,18.314,69.829h63.373 C91.831,69.829,100,61.66,100,51.515C99.868,42.556,93.281,35.046,84.717,33.597z" fill="rgba(60, 15, 15, 0.5654195084110383)" transform="scale(0.6)" style="transform:matrix(0.6, 0, 0, 0.6, 0, 0);animation-play-state:paused" ></path></g>
<g transform="matrix(1,0,0,1,1257.8349609375,46.47439956665039)" style="transform:matrix(1, 0, 0, 1, 1257.83, 46.4744);animation-play-state:paused" ><path d="M84.717,33.597c0.791-2.503,1.186-5.138,1.186-7.773C85.903,11.594,74.308,0,60.079,0 c-9.881,0-18.445,5.534-22.793,13.702c-1.581-0.527-3.426-0.791-5.138-0.791c-9.486,0-17.128,7.642-17.128,17.128 c0,1.186,0.132,2.372,0.395,3.426C6.719,34.783,0,42.424,0,51.515C0,61.66,8.169,69.829,18.314,69.829h63.373 C91.831,69.829,100,61.66,100,51.515C99.868,42.556,93.281,35.046,84.717,33.597z" fill="rgba(60, 15, 15, 0.5654195084110383)" transform="scale(0.6)" style="transform:matrix(0.6, 0, 0, 0.6, 0, 0);animation-play-state:paused" ></path></g>
<g transform="matrix(1,0,0,1,1248.3299560546875,814.4258422851562)" style="transform:matrix(1, 0, 0, 1, 1248.33, 814.426);animation-play-state:paused" ><path d="M84.717,33.597c0.791-2.503,1.186-5.138,1.186-7.773C85.903,11.594,74.308,0,60.079,0 c-9.881,0-18.445,5.534-22.793,13.702c-1.581-0.527-3.426-0.791-5.138-0.791c-9.486,0-17.128,7.642-17.128,17.128 c0,1.186,0.132,2.372,0.395,3.426C6.719,34.783,0,42.424,0,51.515C0,61.66,8.169,69.829,18.314,69.829h63.373 C91.831,69.829,100,61.66,100,51.515C99.868,42.556,93.281,35.046,84.717,33.597z" fill="rgba(60, 15, 15, 0.5654195084110383)" transform="scale(0.6)" style="transform:matrix(0.6, 0, 0, 0.6, 0, 0);animation-play-state:paused" ></path></g>
<g transform="matrix(1,0,0,1,990.300537109375,595.5960693359375)" style="transform:matrix(1, 0, 0, 1, 990.301, 595.596);animation-play-state:paused" ><path d="M84.717,33.597c0.791-2.503,1.186-5.138,1.186-7.773C85.903,11.594,74.308,0,60.079,0 c-9.881,0-18.445,5.534-22.793,13.702c-1.581-0.527-3.426-0.791-5.138-0.791c-9.486,0-17.128,7.642-17.128,17.128 c0,1.186,0.132,2.372,0.395,3.426C6.719,34.783,0,42.424,0,51.515C0,61.66,8.169,69.829,18.314,69.829h63.373 C91.831,69.829,100,61.66,100,51.515C99.868,42.556,93.281,35.046,84.717,33.597z" fill="rgba(60, 15, 15, 0.5654195084110383)" transform="scale(0.6)" style="transform:matrix(0.6, 0, 0, 0.6, 0, 0);animation-play-state:paused" ></path></g>
<g transform="matrix(1,0,0,1,130.25436401367188,221.44044494628906)" style="transform:matrix(1, 0, 0, 1, 130.254, 221.44);animation-play-state:paused" ><path d="M84.717,33.597c0.791-2.503,1.186-5.138,1.186-7.773C85.903,11.594,74.308,0,60.079,0 c-9.881,0-18.445,5.534-22.793,13.702c-1.581-0.527-3.426-0.791-5.138-0.791c-9.486,0-17.128,7.642-17.128,17.128 c0,1.186,0.132,2.372,0.395,3.426C6.719,34.783,0,42.424,0,51.515C0,61.66,8.169,69.829,18.314,69.829h63.373 C91.831,69.829,100,61.66,100,51.515C99.868,42.556,93.281,35.046,84.717,33.597z" fill="rgba(60, 15, 15, 0.5654195084110383)" transform="scale(0.6)" style="transform:matrix(0.6, 0, 0, 0.6, 0, 0);animation-play-state:paused" ></path></g>
<g transform="matrix(1,0,0,1,-94.93860626220703,1241.7421875)" style="transform:matrix(1, 0, 0, 1, -94.9386, 1241.74);animation-play-state:paused" ><path d="M84.717,33.597c0.791-2.503,1.186-5.138,1.186-7.773C85.903,11.594,74.308,0,60.079,0 c-9.881,0-18.445,5.534-22.793,13.702c-1.581-0.527-3.426-0.791-5.138-0.791c-9.486,0-17.128,7.642-17.128,17.128 c0,1.186,0.132,2.372,0.395,3.426C6.719,34.783,0,42.424,0,51.515C0,61.66,8.169,69.829,18.314,69.829h63.373 C91.831,69.829,100,61.66,100,51.515C99.868,42.556,93.281,35.046,84.717,33.597z" fill="rgba(60, 15, 15, 0.5654195084110383)" transform="scale(0.6)" style="transform:matrix(0.6, 0, 0, 0.6, 0, 0);animation-play-state:paused" ></path></g>
<g transform="matrix(1,0,0,1,1451.2032470703125,524.7823486328125)" style="transform:matrix(1, 0, 0, 1, 1451.2, 524.782);animation-play-state:paused" ><path d="M84.717,33.597c0.791-2.503,1.186-5.138,1.186-7.773C85.903,11.594,74.308,0,60.079,0 c-9.881,0-18.445,5.534-22.793,13.702c-1.581-0.527-3.426-0.791-5.138-0.791c-9.486,0-17.128,7.642-17.128,17.128 c0,1.186,0.132,2.372,0.395,3.426C6.719,34.783,0,42.424,0,51.515C0,61.66,8.169,69.829,18.314,69.829h63.373 C91.831,69.829,100,61.66,100,51.515C99.868,42.556,93.281,35.046,84.717,33.597z" fill="rgba(60, 15, 15, 0.5654195084110383)" transform="scale(0.6)" style="transform:matrix(0.6, 0, 0, 0.6, 0, 0);animation-play-state:paused" ></path></g>
<g transform="matrix(1,0,0,1,1359.811279296875,944.0571899414062)" style="transform:matrix(1, 0, 0, 1, 1359.81, 944.057);animation-play-state:paused" ><path d="M84.717,33.597c0.791-2.503,1.186-5.138,1.186-7.773C85.903,11.594,74.308,0,60.079,0 c-9.881,0-18.445,5.534-22.793,13.702c-1.581-0.527-3.426-0.791-5.138-0.791c-9.486,0-17.128,7.642-17.128,17.128 c0,1.186,0.132,2.372,0.395,3.426C6.719,34.783,0,42.424,0,51.515C0,61.66,8.169,69.829,18.314,69.829h63.373 C91.831,69.829,100,61.66,100,51.515C99.868,42.556,93.281,35.046,84.717,33.597z" fill="rgba(60, 15, 15, 0.5654195084110383)" transform="scale(0.6)" style="transform:matrix(0.6, 0, 0, 0.6, 0, 0);animation-play-state:paused" ></path></g>
<g transform="matrix(1,0,0,1,997.888916015625,519.0013427734375)" style="transform:matrix(1, 0, 0, 1, 997.889, 519.001);animation-play-state:paused" ><path d="M84.717,33.597c0.791-2.503,1.186-5.138,1.186-7.773C85.903,11.594,74.308,0,60.079,0 c-9.881,0-18.445,5.534-22.793,13.702c-1.581-0.527-3.426-0.791-5.138-0.791c-9.486,0-17.128,7.642-17.128,17.128 c0,1.186,0.132,2.372,0.395,3.426C6.719,34.783,0,42.424,0,51.515C0,61.66,8.169,69.829,18.314,69.829h63.373 C91.831,69.829,100,61.66,100,51.515C99.868,42.556,93.281,35.046,84.717,33.597z" fill="rgba(60, 15, 15, 0.5654195084110383)" transform="scale(0.6)" style="transform:matrix(0.6, 0, 0, 0.6, 0, 0);animation-play-state:paused" ></path></g>
<g transform="matrix(1,0,0,1,56.636077880859375,349.5338134765625)" style="transform:matrix(1, 0, 0, 1, 56.6361, 349.534);animation-play-state:paused" ><path d="M84.717,33.597c0.791-2.503,1.186-5.138,1.186-7.773C85.903,11.594,74.308,0,60.079,0 c-9.881,0-18.445,5.534-22.793,13.702c-1.581-0.527-3.426-0.791-5.138-0.791c-9.486,0-17.128,7.642-17.128,17.128 c0,1.186,0.132,2.372,0.395,3.426C6.719,34.783,0,42.424,0,51.515C0,61.66,8.169,69.829,18.314,69.829h63.373 C91.831,69.829,100,61.66,100,51.515C99.868,42.556,93.281,35.046,84.717,33.597z" fill="rgba(60, 15, 15, 0.5654195084110383)" transform="scale(0.6)" style="transform:matrix(0.6, 0, 0, 0.6, 0, 0);animation-play-state:paused" ></path></g></g></svg>